<?xml version="1.0" standalone="no"?>
<!DOCTYPE svg PUBLIC "-//W3C//DTD SVG 20010904//EN"
 "http://www.w3.org/TR/2001/REC-SVG-20010904/DTD/svg10.dtd">
<svg version="1.0" xmlns="http://www.w3.org/2000/svg"
 width="700.000000pt" height="700.000000pt" viewBox="0 0 700.000000 700.000000"
 preserveAspectRatio="xMidYMid meet">

<g transform="translate(0.000000,700.000000) scale(0.100000,-0.100000)"
fill="#000000" stroke="none">
<path d="M0 3500 l0 -3500 723 0 723 0 1 73 c1 39 4 102 5 139 3 48 0 68 -8
68 -9 0 -10 7 -1 29 8 22 8 36 0 53 -21 43 -22 56 -6 62 9 4 13 14 10 26 -3
13 0 20 8 20 20 0 49 62 33 71 -8 5 -4 10 13 14 28 7 29 11 33 145 2 105 12
160 28 160 6 0 7 -7 4 -15 -3 -9 3 -32 14 -53 11 -20 20 -43 20 -51 0 -8 2
-12 5 -10 2 3 0 45 -6 94 -7 64 -7 90 2 95 6 4 9 18 8 31 -4 31 28 99 46 99 8
0 15 7 15 16 0 8 5 12 11 9 6 -4 13 2 16 13 3 11 12 23 20 26 8 3 11 11 7 17
-4 7 0 9 14 5 14 -5 21 -1 25 14 3 11 13 20 25 20 10 0 27 9 36 19 10 11 33
27 52 36 19 9 34 20 34 24 0 5 13 14 30 21 16 7 30 18 30 26 0 7 6 11 14 8 7
-3 40 11 73 30 32 19 71 38 86 41 15 4 27 10 27 14 0 13 59 41 74 35 11 -4 16
-1 16 10 0 9 8 16 20 16 11 0 20 5 20 10 0 6 9 10 19 10 11 0 28 11 39 25 21
27 45 34 36 11 -3 -8 3 -23 13 -33 10 -10 27 -31 38 -46 11 -15 38 -36 60 -47
22 -11 58 -31 80 -45 22 -13 48 -24 58 -25 9 0 25 -5 35 -10 9 -6 54 -23 99
-40 45 -16 100 -41 123 -55 22 -14 53 -27 68 -29 15 -2 47 -11 72 -20 25 -8
58 -16 73 -16 16 0 36 -4 46 -10 10 -5 38 -11 62 -12 24 -2 47 -6 50 -11 3 -4
23 -10 45 -13 21 -3 46 -8 54 -11 19 -7 91 -12 213 -14 56 -1 97 -6 97 -11 0
-14 135 -4 230 16 41 9 87 16 103 16 15 0 27 3 27 8 0 4 15 8 33 9 123 7 216
20 230 31 11 9 17 10 22 2 5 -8 14 -7 30 4 13 8 40 16 62 17 21 1 47 7 58 13
11 5 25 11 31 12 78 13 319 118 354 154 5 5 38 28 86 61 13 8 45 35 72 60 27
24 61 52 74 62 39 28 198 186 198 197 0 12 28 -3 89 -48 24 -17 50 -32 57 -32
8 0 14 -3 14 -7 0 -7 54 -42 65 -42 3 0 24 -11 48 -24 23 -13 48 -22 55 -20 6
3 12 0 12 -6 0 -6 7 -8 15 -5 8 4 15 1 15 -6 0 -6 4 -9 9 -6 5 3 26 -8 46 -24
21 -17 44 -30 52 -30 14 0 85 -48 91 -63 2 -4 8 -5 13 -1 5 3 9 0 9 -6 0 -6 5
-8 10 -5 6 3 10 -1 10 -10 0 -8 8 -19 18 -22 37 -14 92 -56 98 -77 9 -31 34
-56 56 -56 10 0 18 -4 18 -9 0 -5 29 -24 65 -41 62 -30 82 -50 51 -50 -18 0
-25 -22 -28 -78 -1 -23 -5 -42 -10 -42 -5 0 -8 -6 -7 -12 3 -21 -13 -78 -22
-78 -4 0 -11 -10 -15 -22 -4 -13 -29 -54 -55 -92 -27 -38 -49 -74 -49 -81 0
-6 -16 -30 -35 -52 -19 -22 -32 -43 -28 -46 3 -4 -9 -18 -26 -32 -17 -15 -31
-32 -31 -38 0 -7 -16 -32 -36 -57 -20 -25 -40 -54 -45 -65 -15 -30 -33 -61
-48 -79 -11 -13 -11 -16 1 -16 20 0 19 -31 -3 -55 -10 -11 -22 -31 -28 -45 -6
-15 -10 -19 -10 -9 -1 9 8 28 19 42 11 14 20 29 20 34 0 4 -5 0 -11 -10 -6 -9
-15 -14 -21 -11 -6 4 -8 3 -5 -3 4 -6 1 -16 -7 -22 -8 -7 -11 -22 -8 -38 4
-20 1 -25 -9 -21 -10 4 -14 -3 -16 -20 0 -15 -6 -28 -12 -30 -13 -4 -15 -32
-3 -32 12 0 43 35 37 42 -3 2 6 15 20 28 14 13 25 28 25 33 0 11 44 66 93 117
19 19 50 58 70 85 19 28 45 59 56 69 16 15 18 22 10 33 -18 21 -30 15 -23 -12
4 -15 2 -25 -5 -25 -6 0 -8 7 -5 15 4 8 1 15 -5 15 -6 0 -11 -8 -11 -17 0 -10
-9 -29 -20 -43 -11 -14 -20 -31 -20 -37 0 -7 -5 -13 -11 -13 -5 0 -7 4 -4 10
3 5 1 10 -4 10 -6 0 -11 -7 -11 -16 0 -9 -15 -34 -34 -54 -27 -30 -36 -35 -41
-23 -3 9 6 33 20 54 14 21 25 42 25 46 0 5 16 23 35 42 19 19 35 39 35 46 0 7
11 20 25 29 14 9 25 25 25 36 0 13 10 24 25 30 14 5 28 18 32 27 4 10 9 20 13
23 22 18 80 111 80 129 0 11 4 21 8 21 4 0 14 17 21 38 7 20 16 46 21 57 5 11
16 45 25 77 16 52 19 56 42 52 22 -4 25 -2 20 17 -6 24 23 64 31 41 2 -7 8 -9
14 -6 5 3 12 -3 15 -15 3 -12 9 -21 14 -21 5 0 9 -7 9 -15 0 -10 7 -15 17 -13
13 2 20 -7 27 -34 6 -22 16 -38 24 -38 8 0 12 -6 9 -14 -3 -8 1 -20 8 -26 8
-7 13 -15 10 -19 -2 -4 2 -25 9 -47 8 -21 16 -100 19 -174 3 -84 11 -151 20
-175 9 -22 18 -83 22 -135 3 -52 9 -128 13 -168 4 -41 4 -76 0 -78 -5 -3 -8
-32 -8 -65 l0 -59 250 0 250 0 0 3500 0 3500 -3500 0 -3500 0 0 -3500z m2127
1610 c3 -8 5 -21 4 -28 -1 -8 2 -19 8 -25 5 -7 13 -40 17 -75 3 -34 10 -65 14
-67 5 -3 6 -15 2 -27 -3 -12 -1 -19 4 -15 5 3 10 -2 11 -11 5 -69 17 -122 29
-122 8 0 14 -11 14 -25 0 -25 -25 -36 -32 -14 -5 16 -48 1 -48 -17 0 -21 -13
-17 -40 10 -12 14 -20 32 -17 40 3 8 3 17 -1 21 -7 7 -12 75 -15 215 -1 47 -6
89 -12 93 -6 6 -5 10 3 14 10 4 10 8 1 19 -8 10 -8 18 -1 27 6 6 10 14 10 17
1 3 5 18 11 33 6 16 8 33 5 38 -3 6 0 17 8 26 11 14 13 7 16 -48 1 -35 5 -71
9 -79z m935 -30 c4 -24 11 -46 15 -49 5 -3 9 -17 11 -31 2 -14 11 -36 21 -50
10 -14 21 -37 24 -52 4 -15 17 -44 29 -65 13 -21 23 -44 23 -53 0 -8 5 -14 10
-13 6 1 12 -10 13 -23 1 -14 7 -34 13 -45 8 -16 13 -18 25 -8 8 6 17 9 21 6 3
-4 -2 -9 -11 -13 -23 -9 -20 -27 8 -53 13 -12 26 -36 30 -52 3 -19 14 -33 31
-39 13 -5 27 -20 31 -34 3 -15 17 -29 35 -35 38 -13 37 -26 -3 -46 -18 -9 -27
-10 -20 -3 19 19 15 34 -13 46 -14 7 -29 20 -33 29 -10 26 -104 143 -114 143
-5 0 -5 12 -2 26 6 25 5 26 -19 22 -18 -4 -24 -1 -20 9 7 17 -23 97 -43 113
-7 7 -14 23 -14 36 0 22 -16 67 -45 124 -7 14 -12 36 -11 50 1 14 -1 30 -5 35
-3 6 -9 25 -11 43 -7 50 15 33 24 -18z m-863 -41 c-10 -10 -22 -19 -26 -19 -4
0 -2 5 4 11 6 6 9 17 6 24 -3 9 2 12 15 8 20 -5 20 -5 1 -24z m821 -23 c0 -3
-4 -8 -10 -11 -5 -3 -10 -1 -10 4 0 6 5 11 10 11 6 0 10 -2 10 -4z m-810 -46
c0 -5 -4 -10 -10 -10 -5 0 -10 5 -10 10 0 6 5 10 10 10 6 0 10 -4 10 -10z
m-180 -10 c0 -5 -5 -10 -11 -10 -5 0 -7 5 -4 10 3 6 8 10 11 10 2 0 4 -4 4
-10z m5 -80 c-10 -11 -21 -17 -24 -14 -3 3 3 12 13 20 28 20 32 17 11 -6z
m1179 -5 c-4 -8 -1 -15 5 -15 6 0 11 -7 11 -15 0 -8 -4 -15 -9 -15 -10 0 -22
40 -15 52 9 14 14 9 8 -7z m-1171 -57 c-9 -16 -20 -7 -18 15 4 32 6 34 14 12
5 -11 7 -23 4 -27z m1211 -4 c9 -24 0 -29 -18 -11 -8 8 -12 17 -9 21 11 10 21
7 27 -10z m-991 -50 c-6 -16 -7 -16 -14 2 -13 34 -11 47 6 30 9 -8 12 -22 8
-32z m1007 -4 c0 -5 -4 -10 -10 -10 -5 0 -10 5 -10 10 0 6 5 10 10 10 6 0 10
-4 10 -10z m-970 -90 c0 -5 -5 -10 -11 -10 -5 0 -7 5 -4 10 3 6 8 10 11 10 2
0 4 -4 4 -10z m-210 -51 c0 -21 -17 -7 -27 24 l-12 32 19 -24 c11 -13 20 -27
20 -32z m122 39 c27 -16 64 -59 60 -72 -2 -4 4 -6 13 -2 9 3 14 2 10 -3 -7
-12 5 -42 14 -36 4 2 8 -1 8 -8 0 -22 35 -68 48 -63 9 3 11 -3 7 -17 -3 -12
-1 -19 3 -14 10 8 55 -31 55 -47 0 -6 14 -17 31 -25 18 -8 34 -22 37 -33 3
-13 10 -17 21 -13 8 3 12 3 9 -1 -10 -9 17 -32 99 -88 39 -26 76 -46 81 -42 5
3 17 -3 27 -14 10 -11 22 -17 27 -14 5 3 14 1 21 -4 14 -11 66 -20 162 -26 39
-3 84 -7 100 -11 17 -3 50 -7 75 -10 25 -2 55 -7 67 -10 16 -5 24 -1 32 14 12
21 51 30 51 11 0 -5 3 -9 8 -8 4 2 22 -3 40 -11 31 -13 32 -15 16 -32 -9 -10
-21 -16 -27 -12 -6 3 -7 1 -3 -6 4 -6 0 -14 -8 -17 -10 -4 -16 -18 -16 -39 0
-38 9 -48 30 -33 12 8 11 9 -5 4 -20 -6 -20 -6 -1 9 11 8 28 13 38 9 10 -3 18
-1 18 5 0 6 5 11 12 11 6 0 19 6 27 14 9 7 35 18 59 24 37 9 44 8 52 -8 6 -10
10 -30 10 -44 0 -14 5 -26 10 -26 6 0 15 -10 21 -23 8 -18 20 -24 49 -25 56
-4 95 42 87 103 -2 16 5 21 35 23 41 3 63 32 24 32 -13 0 -36 4 -52 9 -52 17
-174 20 -189 5 -11 -11 -16 -9 -29 11 -15 23 -15 25 1 26 10 1 24 1 31 0 6 -1
12 3 12 9 0 7 6 10 13 7 6 -2 20 2 30 11 9 8 17 11 17 6 0 -12 40 -12 58 -1 7
5 19 4 26 -2 10 -8 17 -7 26 4 19 23 7 28 -72 27 -83 0 -104 -3 -136 -21 -12
-6 -27 -9 -33 -5 -6 3 -17 -2 -24 -12 -8 -11 -15 -17 -15 -14 -1 3 -3 13 -5
23 -2 10 -11 27 -19 36 -9 10 -16 23 -16 31 0 10 -3 10 -15 0 -9 -8 -15 -9
-15 -2 0 6 5 14 10 17 17 10 -10 37 -31 32 -12 -3 -16 0 -12 9 7 18 37 12 65
-12 27 -24 96 -32 203 -24 19 1 64 -8 77 -16 18 -11 48 -12 54 -2 3 5 11 4 19
-2 9 -7 16 -6 25 5 10 12 8 16 -15 25 -14 5 -37 7 -51 4 -14 -4 -24 -2 -24 4
0 6 -9 9 -20 7 -11 -2 -22 0 -25 6 -8 12 -52 12 -60 -1 -3 -5 -12 -10 -18 -10
-7 0 -4 7 6 14 16 13 16 14 -5 28 -13 8 -49 27 -81 42 -60 29 -70 51 -15 35
18 -5 41 -6 50 -3 11 3 30 -4 49 -20 29 -25 43 -31 64 -26 5 1 15 -7 22 -16 7
-10 13 -14 13 -10 0 5 11 1 25 -8 13 -9 37 -17 52 -18 16 -1 33 -5 39 -10 6
-4 24 -7 40 -7 16 1 50 -2 77 -6 49 -7 59 1 32 28 -8 8 -11 17 -8 21 9 9 53 7
53 -2 0 -11 64 -36 118 -47 11 -2 37 -6 57 -9 41 -7 65 -21 65 -40 0 -6 9 -22
20 -36 14 -18 22 -22 30 -14 15 15 1 47 -19 41 -11 -3 -16 3 -17 20 -2 18 2
23 13 19 8 -3 18 -6 23 -6 4 0 13 -14 19 -31 9 -27 8 -33 -11 -49 -20 -15 -25
-16 -42 -4 -18 12 -21 11 -33 -24 -11 -32 -11 -39 4 -49 9 -7 13 -13 9 -13 -5
0 3 -15 16 -32 16 -22 24 -44 22 -66 -2 -42 -11 -50 -28 -27 -13 18 -14 18
-26 -4 -7 -14 -8 -26 -3 -30 17 -11 27 -43 31 -98 1 -16 8 -23 22 -23 11 0 20
5 20 10 0 6 5 10 11 10 6 0 9 -6 6 -14 -9 -23 21 -27 54 -7 l31 19 -36 25
c-32 21 -35 26 -21 37 12 10 19 10 27 2 7 -7 18 -12 26 -12 18 0 7 49 -15 65
-12 9 -5 11 32 11 30 -1 50 4 52 12 3 6 -2 12 -10 12 -17 0 -30 27 -21 41 3 6
15 7 26 3 19 -6 20 -3 14 29 -4 20 -2 38 3 41 5 3 7 -3 4 -14 -3 -12 0 -20 6
-20 7 0 10 4 6 9 -3 6 10 22 29 37 30 24 33 29 19 39 -14 11 -14 14 3 31 11
11 28 18 38 16 13 -3 17 0 13 10 -4 11 2 13 25 10 16 -3 41 1 54 9 21 11 29
11 46 0 11 -7 17 -8 14 -2 -4 6 13 1 38 -12 25 -12 45 -27 46 -32 0 -6 9 -17
20 -25 19 -14 70 -107 70 -127 0 -13 37 -83 41 -78 2 2 3 -58 1 -133 -2 -109
-5 -138 -17 -145 -8 -4 -15 -15 -15 -22 0 -8 -4 -15 -10 -15 -5 0 -7 -7 -4
-15 4 -8 2 -15 -3 -15 -5 0 -16 -12 -25 -27 -9 -16 -26 -39 -37 -52 -12 -13
-21 -30 -21 -38 0 -7 -5 -13 -11 -13 -5 0 -7 -5 -3 -11 4 -8 -1 -9 -17 -4 -13
4 -21 4 -16 -1 8 -8 -68 -84 -86 -84 -5 0 -8 -3 -4 -6 3 -4 1 -12 -6 -19 -7
-7 -27 -31 -45 -54 -19 -22 -39 -41 -46 -41 -6 0 -24 -12 -39 -26 -15 -14 -44
-28 -65 -31 -20 -3 -43 -10 -50 -16 -8 -6 -48 -11 -91 -12 l-77 -2 4 34 c3 24
0 33 -10 33 -24 0 -45 -32 -52 -80 -9 -57 -34 -126 -63 -169 -13 -19 -23 -39
-23 -44 0 -6 -15 -27 -34 -47 -19 -19 -36 -43 -38 -54 -2 -10 -18 -35 -36 -55
-18 -19 -35 -46 -38 -58 -3 -12 -20 -28 -37 -37 -34 -16 -61 -51 -52 -66 4 -6
1 -10 -6 -10 -19 0 -104 -84 -101 -99 2 -9 -2 -12 -13 -7 -12 4 -16 2 -12 -8
4 -10 1 -13 -8 -10 -8 3 -31 -12 -53 -35 -22 -23 -44 -41 -48 -41 -5 0 -20 -9
-34 -20 -14 -11 -33 -20 -42 -20 -10 0 -32 -9 -49 -19 -17 -11 -38 -17 -45
-14 -8 3 -14 0 -14 -6 0 -5 -19 -16 -42 -22 -24 -7 -47 -16 -53 -21 -5 -4 -20
-8 -33 -8 -13 0 -33 -5 -45 -12 -12 -6 -31 -13 -42 -14 -11 -1 -49 -9 -84 -18
-36 -8 -68 -13 -73 -10 -5 3 -15 1 -22 -5 -7 -6 -45 -12 -84 -13 -57 -1 -76 2
-91 16 -12 11 -27 16 -36 12 -9 -3 -25 -2 -35 4 -10 5 -34 12 -54 14 -46 6
-164 60 -224 103 -26 18 -55 33 -65 33 -10 0 -20 7 -23 15 -4 9 -12 14 -18 13
-6 -2 -43 27 -81 64 -112 107 -137 127 -151 121 -9 -3 -14 2 -14 12 0 18 -38
54 -57 55 -7 0 -13 6 -13 14 0 8 -9 18 -20 21 -11 3 -20 10 -20 16 0 14 -33
49 -47 49 -7 0 -20 15 -29 33 -9 17 -23 39 -31 48 -29 33 -82 130 -88 161 -4
18 -14 44 -22 57 -8 12 -13 31 -10 42 3 10 -1 23 -9 30 -8 6 -11 15 -8 20 3 5
0 9 -6 9 -6 0 -8 4 -5 10 7 12 -22 179 -41 234 -8 21 -14 53 -14 71 0 19 -4
35 -9 37 -5 2 -12 100 -16 218 -3 118 -10 267 -14 330 -4 63 -4 125 1 138 4
13 4 22 -2 22 -6 0 -10 8 -10 18 0 10 -4 22 -9 28 -4 5 -11 20 -14 34 -6 25
-6 25 63 25 39 0 70 -3 70 -7 0 -5 6 -8 14 -8 8 0 21 -6 28 -12 13 -13 29 -17
80 -21 14 -1 24 -5 22 -8 -2 -4 19 -6 46 -6 45 0 48 1 39 18 -5 11 -17 19 -25
19 -27 0 -124 75 -124 96 0 19 -26 64 -33 57 -4 -3 -7 -1 -7 5 0 23 17 20 47
-8 17 -16 34 -26 38 -22 5 4 5 2 2 -4 -3 -6 12 -24 33 -40 22 -16 40 -32 40
-36 0 -4 7 -5 15 -2 8 4 15 2 15 -4 0 -5 12 -9 26 -9 15 0 29 -5 33 -10 11
-18 123 -47 186 -49 71 -2 117 11 95 27 -11 8 -12 12 -2 16 24 10 11 23 -48
50 -39 18 -58 33 -55 41 6 17 -11 50 -41 81 -13 13 -24 30 -24 38 0 20 -28 46
-41 37 -7 -4 -7 1 1 16 8 15 9 25 2 29 -6 4 -7 12 -3 20 7 11 13 10 34 -4 21
-13 30 -14 44 -5 15 10 15 11 1 6 -11 -3 -15 -1 -12 8 3 8 -4 16 -15 19 -24 6
-28 27 -6 27 8 0 25 -6 37 -12z m118 -58 c0 -5 -2 -10 -4 -10 -3 0 -8 5 -11
10 -3 6 -1 10 4 10 6 0 11 -4 11 -10z m1040 -35 c0 -4 -7 -4 -16 -1 -9 4 -24
1 -32 -6 -13 -11 -14 -11 -7 2 20 36 26 40 41 25 8 -7 14 -17 14 -20z m-1260
-11 c0 -8 -4 -12 -10 -9 -5 3 -10 13 -10 21 0 8 5 12 10 9 6 -3 10 -13 10 -21z
m1306 -44 c0 -21 -11 -17 -26 10 -8 15 -6 17 8 13 10 -2 18 -13 18 -23z m-174
-2 c-7 -7 -12 -8 -12 -2 0 6 3 14 7 17 3 4 9 5 12 2 2 -3 -1 -11 -7 -17z
m-1102 -2 c0 -3 -4 -8 -10 -11 -5 -3 -10 -1 -10 4 0 6 5 11 10 11 6 0 10 -2
10 -4z m1392 -31 c51 -32 59 -45 30 -45 -10 0 -22 -3 -26 -7 -15 -16 -42 -9
-44 11 -1 17 1 18 8 6 5 -8 10 -10 10 -5 0 6 4 4 9 -3 6 -10 10 -10 19 1 10
11 4 20 -28 42 -22 15 -40 30 -40 32 0 6 8 2 62 -32z m-1852 -19 c0 -3 -4 -8
-10 -11 -5 -3 -10 -1 -10 4 0 6 5 11 10 11 6 0 10 -2 10 -4z m-31 -58 c21 -9
23 -12 8 -15 -22 -6 -47 14 -46 36 0 11 2 12 6 3 3 -7 17 -18 32 -24z m1998 6
c25 -14 50 -23 58 -20 7 2 19 -1 25 -9 6 -7 20 -12 30 -10 22 4 36 -10 17 -18
-7 -3 -26 -3 -42 0 -17 2 -38 5 -47 6 -10 1 -18 7 -18 15 0 8 -5 12 -12 10 -6
-2 -20 4 -30 14 -10 10 -25 18 -34 18 -8 0 -12 5 -9 10 9 14 13 13 62 -16z
m-254 -50 c27 -20 46 -38 42 -42 -3 -4 -9 -2 -13 3 -4 6 -12 10 -18 10 -11 0
-74 50 -74 59 0 12 17 4 63 -30z m427 2 c0 -3 -4 -8 -10 -11 -5 -3 -10 -1 -10
4 0 6 5 11 10 11 6 0 10 -2 10 -4z m-757 -41 c15 -29 115 -135 125 -133 15 3
42 -15 42 -28 0 -19 -16 -18 -24 1 -3 8 -12 12 -20 9 -8 -3 -17 -1 -21 5 -3 6
-15 11 -26 11 -11 0 -22 7 -25 15 -4 8 -12 15 -20 15 -14 0 -36 33 -32 47 4
16 -35 83 -45 76 -6 -3 -7 -1 -3 5 9 16 34 4 49 -23z m447 -35 c0 -10 -27 -3
-47 13 -25 19 -13 27 17 12 17 -9 30 -20 30 -25z m780 10 c0 -5 -4 -10 -10
-10 -5 0 -10 5 -10 10 0 6 5 10 10 10 6 0 10 -4 10 -10z m97 -106 c-3 -3 -12
-4 -19 -1 -8 3 -5 6 6 6 11 1 17 -2 13 -5z m-118 -109 c1 -5 -6 -2 -15 7 -10
9 -13 21 -8 29 5 9 9 8 15 -7 4 -10 8 -23 8 -29z m58 18 c1 -26 0 -27 -13 -8
-11 15 -11 20 -1 27 6 4 12 8 12 8 0 0 1 -12 2 -27z m-57 -73 c0 -11 4 -20 9
-20 6 0 9 -9 8 -19 -1 -12 -6 -17 -16 -13 -10 4 -11 7 -3 10 7 2 5 11 -8 24
-19 20 -19 38 1 38 5 0 9 -9 9 -20z m-29 -107 c1 -10 1 -22 0 -27 -1 -5 4 -13
11 -17 10 -7 8 -9 -5 -9 -18 0 -42 45 -31 61 9 15 24 10 25 -8z m591 -395 c-7
-7 -12 -8 -12 -2 0 6 3 14 7 17 3 4 9 5 12 2 2 -3 -1 -11 -7 -17z m-747 -705
c0 -10 9 -29 18 -43 9 -14 21 -49 27 -78 7 -28 16 -54 21 -58 5 -3 9 -16 9
-30 0 -14 7 -27 15 -30 8 -4 15 -14 15 -24 0 -10 7 -21 16 -24 9 -4 14 -9 10
-13 -3 -3 1 -15 11 -25 9 -10 12 -18 7 -18 -5 0 6 -13 24 -29 17 -17 30 -36
27 -43 -3 -7 8 -28 25 -46 16 -18 30 -36 30 -40 1 -17 12 -42 18 -42 4 0 16
-16 26 -35 11 -19 25 -35 33 -35 7 0 13 -4 13 -10 0 -5 7 -10 15 -10 9 0 18
-7 21 -15 4 -8 12 -15 19 -15 7 0 25 -13 38 -30 14 -16 29 -30 34 -30 5 0 24
-11 43 -23 19 -13 40 -22 46 -20 6 2 31 -15 56 -37 25 -22 50 -40 56 -40 5 0
15 -7 22 -15 7 -9 19 -14 25 -11 17 6 35 -13 35 -37 0 -10 5 -15 10 -12 22 14
8 -6 -32 -44 -24 -22 -49 -41 -56 -41 -7 0 -11 -4 -8 -9 5 -8 -22 -38 -30 -34
-9 4 -43 -10 -40 -16 3 -4 -5 -8 -17 -8 -12 -1 -23 -7 -25 -13 -2 -5 -11 -10
-19 -10 -8 0 -13 -6 -10 -12 3 -9 -6 -14 -26 -15 -17 -1 -35 -7 -41 -13 -5 -5
-19 -10 -31 -10 -11 0 -31 -7 -43 -16 -12 -8 -27 -12 -32 -9 -6 3 -10 0 -10
-7 0 -8 -14 -14 -38 -15 -20 0 -64 -10 -97 -22 -33 -11 -74 -22 -90 -24 -17
-2 -43 -9 -60 -17 -16 -7 -38 -12 -47 -12 -10 0 -18 -2 -18 -6 0 -4 -28 -8
-63 -10 -34 -1 -77 -9 -95 -18 -18 -9 -41 -13 -49 -9 -9 3 -20 0 -24 -6 -4 -7
-35 -11 -84 -11 -43 1 -83 -2 -89 -6 -13 -8 -326 -10 -326 -2 0 9 -152 9 -176
0 -18 -7 -21 -6 -17 10 4 16 0 19 -23 18 -45 -1 -100 10 -134 27 -17 9 -35 13
-40 10 -6 -3 -10 -2 -10 3 0 12 -32 12 -47 0 -8 -7 -10 -3 -6 11 4 15 -1 22
-21 27 -14 3 -26 11 -26 16 0 6 -6 8 -14 5 -7 -3 -20 3 -30 14 -17 21 -21 39
-8 39 16 0 57 42 54 55 -1 7 4 15 13 19 8 3 15 1 15 -4 0 -6 4 -10 10 -10 5 0
9 3 9 8 -4 23 3 33 19 28 14 -5 24 3 38 29 23 43 71 62 92 37 14 -18 16 -54 3
-67 -13 -15 -23 -65 -12 -65 5 0 17 -3 27 -7 14 -5 16 -3 11 11 -4 10 -1 24 8
33 15 14 16 78 2 113 -3 8 -8 31 -12 50 -3 19 -7 42 -8 50 -2 9 -6 21 -11 28
-4 6 -4 17 -1 23 4 6 -2 13 -14 16 -11 3 -18 9 -15 14 3 5 0 9 -7 9 -9 0 -9 3
0 14 10 11 9 20 -1 40 -7 14 -16 25 -20 25 -5 1 -8 3 -8 6 0 3 0 12 0 21 0 10
6 14 14 11 7 -3 19 0 25 6 6 6 28 12 48 14 79 5 102 10 127 26 15 10 27 13 31
7 4 -6 16 -3 31 6 13 9 44 17 68 18 25 0 48 4 52 9 4 4 18 7 31 7 13 0 23 5
23 10 0 6 7 10 15 10 8 0 19 9 25 20 6 10 26 22 45 26 19 3 35 10 35 15 0 5 7
9 15 9 8 0 15 7 15 15 0 8 9 15 20 15 22 0 61 33 205 178 51 50 96 92 100 92
12 0 35 29 35 45 0 8 7 18 15 21 8 4 15 12 15 20 0 8 8 22 18 33 9 10 28 37
42 60 24 41 42 42 45 4z m1054 -980 c-13 -15 -32 -33 -41 -41 -9 -7 -23 -18
-30 -25 -7 -7 -26 -20 -43 -29 -16 -9 -48 -25 -70 -37 -22 -12 -44 -27 -50
-34 -16 -19 -83 -67 -94 -67 -6 0 -11 -7 -11 -17 0 -9 -3 -13 -7 -10 -3 4 -12
2 -19 -4 -8 -7 -14 -7 -19 1 -9 15 3 30 26 30 10 0 19 5 19 11 0 6 7 9 15 5 9
-3 20 3 27 14 7 11 17 20 21 20 5 0 25 16 45 35 20 19 45 38 55 41 9 3 17 10
17 15 0 6 5 7 11 4 6 -4 17 2 25 14 8 12 23 21 33 21 10 0 36 17 57 39 45 44
70 55 33 14z m51 -41 c0 -22 -94 -122 -114 -122 -8 0 -17 -9 -21 -19 -3 -10
-16 -22 -28 -25 -12 -3 -35 -18 -52 -33 -32 -30 -75 -57 -117 -74 -16 -6 -28
-15 -28 -19 0 -5 -24 -20 -52 -35 -29 -14 -64 -33 -78 -40 -14 -8 -35 -15 -47
-15 -12 0 -25 -4 -28 -10 -3 -5 -13 -10 -21 -10 -9 0 -24 -10 -34 -22 -10 -13
-22 -19 -26 -15 -9 9 8 42 22 42 5 0 15 4 22 8 6 5 16 6 21 3 5 -3 11 1 15 9
3 8 14 15 25 15 11 0 26 7 34 15 8 7 26 17 41 21 15 3 53 23 85 44 32 21 67
41 79 44 11 4 32 18 46 33 14 14 26 23 26 19 0 -6 23 12 91 72 20 17 42 32 48
32 6 0 11 4 11 8 0 7 70 89 78 91 1 1 2 -7 2 -17z m-2523 -195 c7 0 10 -4 7
-8 -2 -4 6 -10 18 -14 38 -11 92 -37 110 -52 9 -8 21 -12 26 -9 5 3 15 -1 22
-9 7 -8 16 -12 21 -9 5 3 9 1 9 -5 0 -5 -12 -8 -27 -7 -33 5 -124 49 -126 62
-1 5 -5 8 -9 7 -6 -2 -28 5 -68 23 -3 1 -16 5 -28 9 -18 6 -20 10 -10 16 7 5
20 6 28 3 8 -4 20 -7 27 -7z m-142 -47 c-3 -6 3 -10 14 -10 10 0 21 -4 23 -8
2 -4 23 -18 47 -30 34 -16 41 -23 28 -28 -14 -5 -15 -9 -6 -20 18 -22 -6 -17
-32 7 -13 11 -18 17 -10 13 9 -5 12 -3 7 5 -4 6 -11 9 -16 6 -5 -3 -28 12 -51
35 -35 34 -40 42 -28 56 11 14 13 14 21 0 5 -9 6 -21 3 -26z m2218 13 c9 -8
-101 -45 -113 -38 -6 4 -10 1 -10 -4 0 -6 -9 -11 -19 -11 -11 0 -22 -4 -25 -9
-3 -4 -24 -11 -46 -15 -43 -7 -49 -9 -117 -44 -23 -12 -55 -22 -70 -22 -16 0
-34 -5 -40 -11 -5 -5 -30 -12 -54 -14 -24 -1 -60 -10 -79 -18 -19 -8 -43 -13
-52 -12 -9 2 -22 -3 -29 -11 -6 -8 -24 -14 -39 -14 -15 0 -45 -6 -66 -13 -52
-18 -114 -28 -114 -17 0 12 24 19 53 16 14 -2 28 3 31 10 3 7 30 15 63 19 32
3 70 13 86 21 15 8 27 12 27 9 0 -3 6 -3 13 2 15 10 33 13 79 16 21 1 38 5 38
10 0 4 3 6 8 5 4 -1 21 4 37 11 17 7 39 14 50 16 35 5 49 10 63 23 7 6 22 12
33 12 10 0 19 5 19 10 0 6 14 10 30 10 17 0 30 5 30 11 0 6 6 9 14 6 8 -3 17
-3 20 1 4 3 14 7 24 8 30 5 107 26 122 35 19 10 25 11 33 2z m-1819 -99 c9 -8
16 -13 16 -9 0 4 7 -1 16 -10 9 -9 23 -14 31 -11 8 4 27 -2 41 -13 15 -10 34
-16 42 -14 9 3 8 0 -3 -7 -10 -7 -26 -8 -35 -4 -9 4 -21 6 -25 5 -5 -1 -6 3
-2 9 4 6 -4 9 -18 8 -30 -3 -97 32 -97 49 0 18 15 16 34 -3z m-260 -3 c3 -5
15 -7 26 -4 16 4 20 0 20 -21 0 -29 20 -37 21 -8 0 13 2 12 9 -5 5 -13 12 -23
15 -23 4 0 4 4 0 9 -3 5 -1 12 4 16 5 3 14 -2 19 -11 5 -9 13 -15 18 -15 20 2
81 -23 111 -46 18 -14 36 -22 42 -19 5 3 11 -1 15 -9 3 -8 11 -15 18 -15 9 0
9 3 -2 11 -12 8 -10 9 9 4 13 -4 29 -8 35 -9 13 -2 79 -31 117 -52 14 -7 29
-11 32 -7 4 3 14 0 24 -8 15 -12 16 -12 8 1 -6 12 -5 13 6 3 7 -7 28 -13 45
-13 18 0 35 -4 38 -9 6 -8 64 -25 79 -22 5 1 6 -2 4 -6 -3 -5 69 -8 159 -7 91
0 167 -3 170 -7 3 -5 -68 -9 -158 -8 -165 0 -291 16 -353 45 -16 7 -49 18 -72
24 -24 6 -43 16 -43 22 0 5 -9 8 -20 5 -10 -3 -25 2 -31 10 -7 7 -22 13 -33
12 -30 -3 -107 29 -147 62 -23 18 -47 23 -131 28 -9 1 -23 8 -32 16 -8 9 -19
16 -23 16 -4 -1 -11 11 -15 24 -6 24 5 35 16 16z m466 -76 c5 3 10 2 10 -4 0
-6 7 -8 15 -5 8 4 15 2 15 -2 0 -16 100 -51 127 -46 6 1 14 -2 18 -8 8 -13
-21 -13 -85 1 -27 6 -48 15 -45 20 4 5 -1 6 -9 3 -21 -8 -110 37 -94 47 7 4
18 3 25 -2 7 -6 17 -8 23 -4z m1385 -32 c-22 -16 -35 -17 -35 -3 0 6 7 10 15
10 8 0 15 5 15 11 0 5 5 7 12 3 7 -5 5 -11 -7 -21z m-45 -12 c0 -12 -20 -19
-50 -17 -14 1 -27 -2 -30 -6 -10 -14 -70 -21 -70 -9 0 6 3 11 8 12 4 0 16 2
27 5 11 2 33 6 49 9 15 2 31 6 34 9 9 9 32 7 32 -3z m-1110 -23 c0 -6 3 -8 7
-5 3 4 12 2 19 -4 9 -7 19 -7 30 -1 24 14 63 -5 61 -29 -2 -25 -14 -24 -22 1
-3 11 -11 20 -17 20 -5 0 -8 -6 -5 -14 4 -10 0 -12 -16 -8 -12 2 -27 9 -33 13
-6 5 -13 6 -17 3 -3 -3 -10 4 -17 15 -7 14 -7 21 0 21 5 0 10 -5 10 -12z m496
-16 c-3 -5 -30 -17 -60 -27 -40 -14 -59 -16 -67 -8 -7 7 -1 14 21 22 18 6 36
8 41 5 5 -3 17 0 26 5 22 13 46 14 39 3z m444 -7 c0 -12 -51 -28 -92 -29 -9
-1 -20 -4 -24 -8 -10 -10 -44 -10 -44 0 0 12 56 33 90 34 16 1 30 4 30 7 0 4
9 7 20 8 11 1 20 -4 20 -12z m-755 -4 c3 -5 1 -12 -4 -15 -12 -8 -41 3 -41 15
0 12 37 12 45 0z m125 -16 c0 -9 -6 -12 -15 -9 -8 4 -12 10 -9 15 8 14 24 10
24 -6z m-50 -5 c-19 -13 -30 -13 -30 0 0 6 10 10 23 10 18 0 19 -2 7 -10z m85
0 c3 -5 1 -10 -4 -10 -6 0 -11 5 -11 10 0 6 2 10 4 10 3 0 8 -4 11 -10z m425
-8 c0 -4 -28 -14 -62 -21 -35 -7 -65 -17 -68 -21 -6 -10 -172 -41 -179 -34 -9
8 7 14 45 17 21 1 44 8 49 14 6 7 27 14 47 15 21 2 38 7 38 11 0 5 5 5 10 2 6
-3 10 -2 10 4 0 6 13 9 29 7 16 -2 35 1 43 5 17 11 38 11 38 1z m-350 -74 c0
-4 -13 -8 -30 -8 -16 0 -30 4 -30 8 0 5 14 9 30 9 17 0 30 -4 30 -9z"/>
<path d="M1992 4102 c-29 -19 -28 -37 3 -38 14 -1 25 1 25 5 0 14 111 11 134
-4 12 -8 25 -13 28 -10 9 10 58 -17 58 -32 0 -16 -16 -17 -25 -3 -5 8 -11 8
-20 0 -7 -6 -22 -7 -36 -3 -34 11 -90 9 -115 -5 -12 -6 -24 -9 -27 -5 -4 3
-13 1 -20 -5 -8 -7 -17 -9 -20 -6 -3 3 -19 -3 -35 -15 -36 -25 -50 -27 -31 -4
13 15 12 15 -8 2 -13 -8 -23 -17 -23 -22 0 -4 -8 -7 -17 -5 -10 2 -19 -5 -21
-16 -2 -11 0 -16 7 -12 6 4 11 3 11 -3 0 -16 43 -8 64 11 11 10 29 18 41 18
11 0 29 6 40 13 11 7 29 12 40 12 17 0 20 -6 18 -39 -2 -29 1 -37 11 -33 9 4
12 0 9 -12 -5 -20 50 -43 109 -46 29 -2 38 2 47 22 14 31 14 60 0 65 -11 4 -9
10 18 57 2 2 9 -2 18 -9 9 -7 18 -10 21 -7 3 3 27 -4 52 -15 55 -24 102 -39
102 -32 0 19 -38 55 -71 68 -21 9 -39 20 -39 26 0 5 -7 10 -15 10 -8 0 -15 4
-15 9 0 5 -10 13 -22 17 -13 3 -42 16 -66 27 -23 11 -46 17 -49 13 -3 -3 -12
-1 -20 6 -22 18 -134 18 -161 0z"/>
<path d="M4602 4108 c2 -8 -6 -12 -19 -11 -18 2 -23 -2 -23 -22 0 -14 -4 -25
-9 -25 -12 0 -87 -70 -75 -70 5 0 -1 -8 -14 -18 -13 -10 -24 -28 -25 -40 0
-12 -7 -24 -14 -26 -7 -3 -13 -11 -13 -18 0 -9 3 -8 10 2 5 8 10 11 10 7 0 -4
-7 -19 -16 -32 -24 -37 -8 -200 21 -217 15 -9 2 -131 -14 -136 -6 -2 -18 -10
-25 -18 -8 -8 -19 -14 -25 -14 -10 0 -26 -31 -65 -120 -13 -32 -56 -69 -78
-70 -10 0 -18 -6 -18 -14 0 -8 -3 -22 -6 -31 -5 -13 -2 -16 12 -13 10 2 19 10
19 18 0 26 63 49 148 53 20 1 36 6 34 12 -2 5 -8 10 -13 10 -5 0 -17 5 -28 11
-23 14 -16 38 23 81 16 18 26 34 23 37 -3 3 0 6 7 6 7 0 11 6 9 12 -3 7 5 18
16 24 12 5 20 19 19 29 -1 11 4 23 10 27 9 6 8 11 -3 18 -10 6 -11 10 -2 10
18 0 15 65 -4 84 -8 9 -12 21 -9 26 4 6 2 16 -4 23 -5 7 -15 25 -20 41 -11 27
-10 27 21 24 29 -2 98 -55 98 -74 0 -15 47 -69 63 -72 21 -4 21 -7 -2 53 -13
35 -25 51 -40 53 -12 2 -21 10 -21 18 0 20 -27 47 -40 39 -5 -3 -10 -1 -10 5
0 6 -4 8 -10 5 -13 -8 -63 42 -55 56 4 6 13 8 20 5 8 -3 21 6 29 20 10 14 12
24 6 24 -19 0 0 42 33 78 17 17 39 32 49 32 20 0 24 16 6 23 -7 2 -1 8 14 12
32 8 62 0 53 -14 -3 -5 -1 -12 5 -16 10 -6 40 -71 39 -83 -4 -23 3 -31 19 -25
14 5 15 4 6 -8 -7 -8 -14 -66 -16 -129 -6 -127 -7 -139 -25 -158 -7 -7 -13
-22 -13 -33 0 -10 -6 -19 -14 -19 -7 0 -20 -8 -27 -17 -13 -16 -12 -17 4 -4 9
7 17 9 17 4 0 -12 -106 -114 -112 -108 -2 2 -4 -5 -5 -15 -1 -13 5 -20 17 -20
29 0 50 11 50 26 0 8 10 14 21 14 16 0 20 5 16 19 -3 15 0 17 17 13 18 -5 19
-3 8 10 -11 14 -10 18 7 30 26 18 83 127 77 145 -3 8 -1 22 6 32 8 13 8 26 0
50 -7 18 -7 31 -1 31 5 0 8 16 6 35 -1 19 -6 35 -11 35 -6 0 -5 5 2 12 17 17
15 53 -4 69 -8 7 -13 21 -11 30 3 10 -1 23 -9 30 -8 6 -14 17 -14 25 0 28 -23
62 -37 57 -10 -4 -13 0 -11 12 2 12 -7 22 -30 32 -25 10 -31 10 -30 1z"/>
<path d="M3771 4057 c-17 -17 -13 -27 12 -27 21 0 49 -12 94 -40 17 -11 25
-12 34 -3 9 9 7 17 -12 32 -13 11 -30 20 -36 21 -7 0 -13 5 -13 11 0 5 -4 8
-9 5 -5 -4 -20 -2 -34 3 -16 6 -28 6 -36 -2z"/>
<path d="M2550 3605 c13 -15 0 -96 -14 -88 -6 3 -8 3 -4 -2 4 -4 3 -17 -3 -28
-9 -15 -8 -18 2 -12 9 6 11 3 6 -9 -4 -10 -7 -20 -7 -22 0 -3 -4 -2 -10 1 -5
3 -10 3 -11 -2 -4 -42 -25 -77 -40 -67 -5 3 -6 -3 -2 -12 5 -13 3 -15 -7 -9
-10 6 -12 4 -7 -8 4 -10 2 -16 -5 -14 -6 1 -13 -4 -15 -10 -3 -7 0 -13 6 -13
6 0 11 -5 11 -11 0 -5 -4 -8 -9 -5 -5 3 -8 -19 -6 -51 1 -32 7 -59 14 -61 6
-2 11 -11 11 -20 0 -17 66 -83 75 -74 3 3 5 0 5 -6 0 -15 37 -16 46 0 4 7 -10
26 -35 47 -31 26 -40 41 -36 54 5 13 2 17 -13 17 -32 0 -43 66 -17 110 8 14
24 45 36 70 13 25 32 57 42 72 13 18 21 49 25 96 5 70 5 70 -21 69 -16 -1 -22
-6 -17 -12z"/>
<path d="M2551 3189 c41 -32 139 -52 139 -28 0 16 -70 42 -119 44 l-44 2 24
-18z"/>
<path d="M2575 2710 c-9 -15 5 -32 22 -26 10 4 13 2 10 -8 -4 -11 -1 -13 10
-9 10 4 14 2 10 -4 -3 -5 5 -16 18 -23 14 -7 25 -20 25 -28 0 -7 6 -12 13 -9
6 2 12 8 12 14 0 11 -30 56 -57 85 -19 20 -53 24 -63 8z"/>
<path d="M1613 694 c3 -11 8 -31 11 -46 4 -16 13 -28 22 -28 8 0 13 -4 10 -9
-7 -10 59 -153 86 -186 4 -5 26 -32 48 -60 22 -27 40 -54 40 -60 0 -10 82 -86
88 -81 7 8 -51 107 -69 116 -11 6 -16 16 -13 22 4 6 3 8 -3 5 -14 -9 -46 28
-73 83 -13 25 -29 49 -36 53 -8 4 -14 16 -14 25 0 9 -7 26 -15 36 -8 11 -15
26 -15 34 0 9 -11 30 -25 48 -14 18 -25 37 -25 43 0 5 -5 13 -11 17 -7 4 -9 0
-6 -12z"/>
<path d="M6033 613 c-7 -2 -13 -14 -13 -24 0 -14 -4 -18 -12 -13 -8 5 -7 0 2
-11 9 -11 10 -16 3 -11 -8 4 -13 1 -13 -8 0 -27 16 -18 56 30 27 34 32 43 16
35 -12 -6 -22 -16 -22 -21 0 -6 -5 -10 -10 -10 -7 0 -7 6 0 20 6 11 9 20 8 19
-2 0 -9 -3 -15 -6z"/>
<path d="M1575 521 c11 -13 19 -32 17 -43 -2 -12 1 -18 6 -14 6 3 12 -4 14
-16 2 -13 9 -22 16 -20 6 1 11 -4 10 -10 -2 -7 5 -12 15 -12 11 1 17 -5 17
-18 0 -11 8 -22 20 -25 11 -3 20 -10 20 -16 0 -19 74 -78 93 -73 14 3 16 0 12
-14 -5 -15 4 -25 34 -45 22 -14 46 -25 52 -25 6 0 9 -6 6 -14 -6 -15 19 -30
34 -20 14 8 -42 63 -58 57 -7 -3 -13 0 -13 7 0 14 -70 90 -83 90 -10 0 -127
122 -127 133 0 4 -7 7 -15 7 -8 0 -15 9 -15 20 0 14 -5 18 -16 13 -14 -5 -15
-3 -4 17 9 17 9 25 0 34 -8 8 -9 6 -4 -8 7 -18 6 -18 -22 0 l-29 18 20 -23z"/>
<path d="M5052 433 c-23 -7 -84 -15 -134 -17 -51 -1 -113 -8 -138 -15 -26 -7
-67 -10 -97 -7 -43 5 -53 3 -53 -9 0 -17 -35 -21 -45 -5 -4 6 -10 8 -14 6 -14
-9 -91 -15 -95 -7 -5 8 -96 8 -111 -1 -12 -6 -46 -5 -60 3 -6 3 -35 3 -65 0
-30 -4 -67 -3 -82 2 -18 6 -34 4 -50 -5 -14 -9 -51 -14 -95 -13 -40 0 -73 -2
-73 -5 0 -3 -63 -5 -140 -5 -77 0 -140 2 -140 5 0 3 -133 6 -295 6 -162 0
-295 -2 -295 -5 0 -3 -32 -6 -70 -5 -39 1 -70 -2 -70 -6 0 -8 -436 -4 -450 5
-14 9 -41 -20 -35 -38 3 -7 -1 -20 -9 -27 -9 -7 -13 -17 -10 -22 4 -7 9 -6 13
1 4 6 6 -28 5 -76 -1 -48 2 -96 8 -106 7 -14 7 -17 -1 -13 -8 5 -8 0 -1 -19
13 -35 13 -48 -2 -39 -7 4 -8 3 -4 -4 4 -7 20 -12 37 -12 28 0 37 9 22 24 -5
4 -8 11 -9 14 0 4 -3 23 -7 42 -3 19 -8 83 -11 141 -4 105 -4 107 18 111 13 3
31 2 42 -1 10 -4 120 -5 244 -4 260 3 647 4 970 3 443 -1 890 15 995 36 22 4
49 9 60 10 11 1 22 3 25 5 8 4 51 8 115 12 33 2 70 9 83 16 12 6 27 9 32 6 6
-3 10 -1 10 4 0 6 11 11 23 11 23 0 24 -3 23 -76 -1 -41 2 -78 6 -80 5 -3 8
-10 8 -15 0 -6 -4 -7 -10 -4 -5 3 -10 -1 -10 -9 0 -9 5 -16 11 -16 6 0 7 -6 2
-12 -4 -7 -6 -25 -4 -40 1 -14 -2 -29 -8 -33 -6 -3 -11 -12 -11 -18 0 -7 4 -6
11 3 9 12 9 11 4 -5 -4 -11 -9 -36 -12 -55 -2 -19 -9 -38 -16 -43 -8 -6 -6 -7
5 -4 9 3 19 1 21 -6 4 -13 27 81 27 112 0 10 7 32 16 50 12 25 13 35 4 46 -8
9 -8 20 -2 31 6 10 6 30 1 49 -17 61 -17 95 0 105 12 7 12 9 2 10 -10 0 -11 3
-3 13 15 18 -53 18 -106 0z m-2585 -215 c-3 -8 -6 -5 -6 6 -1 11 2 17 5 13 3
-3 4 -12 1 -19z"/>
<path d="M5663 314 c-12 -13 -18 -24 -12 -24 6 0 7 -5 4 -11 -4 -6 -13 -8 -21
-5 -8 3 -15 0 -15 -7 -2 -19 -5 -31 -11 -47 -8 -19 -22 -93 -20 -103 1 -4 -3
-18 -9 -30 -7 -12 -13 -36 -15 -54 -3 -31 -1 -33 31 -33 19 0 35 5 35 10 0 6
-8 10 -17 8 -21 -4 -30 34 -15 66 23 51 32 78 27 86 -3 4 2 11 11 14 10 4 14
14 11 25 -2 10 4 29 14 42 10 13 19 28 19 32 0 5 7 15 15 23 8 9 15 20 15 25
0 16 -24 8 -47 -17z"/>
<path d="M4797 204 c-3 -3 -20 -7 -39 -8 -57 -5 -59 -6 -53 -16 4 -6 25 -8 51
-4 40 5 43 4 37 -13 -11 -31 -23 -41 -46 -39 -12 1 -33 -9 -46 -21 -19 -18
-20 -23 -8 -23 9 0 18 4 22 10 3 5 12 7 20 3 8 -3 15 0 15 6 0 8 6 8 19 -1 20
-12 26 -64 9 -74 -4 -3 -8 -11 -8 -17 0 -7 4 -6 10 3 6 10 10 11 10 3 0 -23
20 -13 20 10 0 38 13 49 43 38 15 -6 27 -17 27 -24 0 -9 12 -14 29 -15 22 0
28 3 24 14 -3 8 -14 14 -24 14 -10 0 -19 6 -19 13 0 9 -12 14 -30 15 -34 1
-50 8 -50 24 0 7 6 6 15 -2 14 -11 19 -7 16 13 0 4 3 7 8 7 5 0 9 11 9 24 0
17 -5 23 -14 19 -8 -3 -14 -9 -14 -14 0 -5 -4 -9 -10 -9 -5 0 -10 11 -10 25 0
18 4 23 15 19 9 -4 15 0 15 10 0 15 -30 23 -43 10z"/>
<path d="M3125 187 c-4 -9 -4 -28 -1 -41 4 -16 1 -26 -9 -30 -8 -3 -15 -13
-14 -23 0 -11 3 -13 6 -5 8 20 25 14 18 -7 -4 -12 0 -21 11 -25 10 -4 14 -13
11 -26 -3 -11 -1 -18 4 -14 5 3 9 -1 9 -8 0 -7 5 -5 11 6 9 14 8 20 -2 27 -11
6 -8 9 9 10 12 1 28 2 35 3 7 1 12 -10 11 -25 -1 -35 23 -33 35 3 7 19 15 26
25 22 8 -3 20 -3 27 1 19 12 -13 26 -46 19 -22 -4 -26 -3 -15 5 26 18 3 23
-24 6 -14 -10 -26 -14 -26 -10 0 4 -7 2 -15 -5 -12 -10 -15 -10 -15 1 0 12 -2
12 -9 0 -13 -20 -24 4 -17 37 7 37 -8 104 -19 79z"/>
<path d="M4095 190 c-2 -3 0 -12 4 -19 6 -9 11 -10 15 -2 16 25 33 10 33 -29
0 -21 -4 -37 -9 -34 -5 3 -15 0 -23 -6 -18 -15 -35 -5 -35 20 0 14 -18 30 -33
30 -5 0 2 -87 8 -102 4 -10 5 -23 2 -30 -3 -7 -6 -2 -6 11 -1 19 -4 22 -13 13
-8 -8 -8 -15 2 -27 14 -16 45 -21 35 -5 -3 6 1 10 9 10 8 0 17 -4 20 -9 3 -5
24 -9 46 -9 l40 -1 -5 56 c-3 31 -9 61 -13 67 -4 6 -7 18 -8 26 -3 45 -5 47
-34 47 -17 0 -33 -3 -35 -7z m51 -122 c15 -2 4 -48 -12 -48 -7 0 -16 4 -19 10
-3 6 -14 10 -23 10 -11 0 -18 8 -19 21 -2 19 2 20 30 15 18 -4 37 -7 43 -8z"/>
<path d="M4513 187 c-18 -6 -33 -14 -33 -18 0 -12 27 -11 35 1 3 6 15 10 27
10 15 0 19 -5 15 -20 -3 -10 0 -21 6 -23 17 -5 -32 -44 -66 -52 -21 -4 -27 -9
-17 -12 8 -3 18 -11 22 -17 5 -8 11 -7 20 2 18 18 27 15 23 -8 -2 -13 0 -18 7
-14 6 4 8 -1 3 -15 -4 -13 -2 -21 5 -21 6 0 11 18 11 43 0 23 2 65 5 93 7 58
-5 68 -63 51z"/>
<path d="M3580 174 c-25 -13 -47 -54 -30 -54 6 0 10 6 10 14 0 17 53 26 66 12
18 -20 8 -79 -15 -94 -11 -8 -21 -23 -21 -33 0 -16 3 -15 25 6 13 14 29 25 35
25 5 0 9 3 8 8 0 4 3 16 7 26 6 13 4 21 -3 24 -7 2 -10 8 -7 13 8 12 -12 47
-33 57 -11 6 -26 4 -42 -4z"/>
<path d="M3920 164 c0 -14 -4 -23 -9 -20 -22 14 -41 -7 -41 -43 0 -25 3 -32 9
-22 8 12 12 12 25 2 14 -12 14 -16 -9 -35 -34 -30 -32 -46 8 -45 17 0 26 3 20
6 -19 7 -16 31 7 55 31 33 23 67 -8 36 -22 -22 -14 24 9 48 12 12 18 27 14 33
-11 20 -25 12 -25 -15z"/>
<path d="M2750 158 c-18 -14 -20 -22 -12 -30 9 -9 12 -8 12 4 0 13 11 16 62
14 38 -1 63 -6 66 -14 2 -7 8 -10 13 -7 12 8 -2 -28 -15 -37 -6 -4 -33 -8 -61
-9 -27 0 -59 -4 -70 -8 -18 -7 -17 -9 10 -14 17 -4 54 -5 82 -3 29 1 51 0 48
-2 -3 -3 3 -11 13 -18 10 -8 12 -13 5 -14 -21 0 -15 -20 6 -20 39 0 21 69 -19
71 -9 0 -6 4 8 9 31 13 30 55 -2 76 -38 24 -117 25 -146 2z"/>
<path d="M3160 135 c0 -6 32 -10 78 -9 103 1 112 2 112 13 0 6 -41 9 -95 8
-56 -1 -95 -6 -95 -12z"/>
<path d="M4351 137 c-1 -10 -5 -15 -11 -12 -5 3 -8 0 -5 -7 10 -27 13 -84 5
-99 -6 -11 -5 -16 6 -16 8 0 14 11 15 26 0 14 2 37 3 51 2 14 0 36 -5 50 -5
17 -8 19 -8 7z"/>
<path d="M5664 87 c3 -19 -1 -26 -15 -30 -19 -5 -27 -27 -10 -27 24 0 50 63
31 75 -7 4 -9 -3 -6 -18z"/>
<path d="M4728 58 c-14 -15 -22 -30 -17 -34 13 -7 63 46 52 55 -4 4 -20 -6
-35 -21z"/>
<path d="M3970 34 c0 -10 -6 -14 -15 -10 -9 3 -15 0 -15 -9 0 -9 10 -15 24
-15 19 0 22 4 18 25 -5 28 -12 33 -12 9z"/>
<path d="M4688 3 c7 -3 16 -2 19 1 4 3 -2 6 -13 5 -11 0 -14 -3 -6 -6z"/>
</g>
</svg>
